<mxfile host="65bd71144e">
    <diagram id="HIP3nbAZw_EuaXWnEj3U" name="Page-1">
        <mxGraphModel dx="1086" dy="658" grid="1" gridSize="10" guides="1" tooltips="1" connect="1" arrows="1" fold="1" page="1" pageScale="1" pageWidth="850" pageHeight="1100" math="0" shadow="0">
            <root>
                <mxCell id="0"/>
                <mxCell id="1" parent="0"/>
                <mxCell id="7" value="http://ics2o.mths.ca" style="swimlane;whiteSpace=wrap;html=1;" vertex="1" parent="1">
                    <mxGeometry x="30" y="30" width="803" height="460" as="geometry"/>
                </mxCell>
                <mxCell id="8" value="&lt;h1 style=&quot;margin-top: 0px; line-height: 270%;&quot;&gt;&lt;span style=&quot;font-size: 30px;&quot;&gt;Weather web page, JS&lt;/span&gt;&lt;/h1&gt;" style="text;html=1;whiteSpace=wrap;overflow=hidden;rounded=0;" vertex="1" parent="7">
                    <mxGeometry x="20" y="20" width="550" height="70" as="geometry"/>
                </mxCell>
                <mxCell id="9" value="&lt;font style=&quot;font-size: 26px;&quot;&gt;Click this to find the current weather around SMT&lt;/font&gt;" style="text;html=1;align=left;verticalAlign=middle;whiteSpace=wrap;rounded=0;" vertex="1" parent="7">
                    <mxGeometry x="20" y="100" width="450" height="30" as="geometry"/>
                </mxCell>
                <mxCell id="11" value="&lt;font style=&quot;font-size: 17px;&quot;&gt;Show Weather&lt;/font&gt;" style="rounded=1;whiteSpace=wrap;html=1;align=center;fillColor=light-dark(#FFFFFF,#000000);strokeColor=light-dark(#000000,#FFFFFF);" vertex="1" parent="7">
                    <mxGeometry x="20" y="160" width="200" height="30" as="geometry"/>
                </mxCell>
                <mxCell id="16" value="" style="shape=image;verticalLabelPosition=bottom;labelBackgroundColor=default;verticalAlign=top;aspect=fixed;imageAspect=0;image=data:image/png,iVBORw0KGgoAAAANSUhEUgAAAOEAAADhCAMAAAAJbSJIAAAAkFBMVEX////Hxsb+wiPMy8vz8vLEw8P+vwr+6bH+wBX//fj/7sf+13T+xS739/f/5qn+2YLT0tL+yED/9tzf3t7+vQD/4Jno5+f09PTl5OT+8dD/6LbY19f/9uP+0GrQz8/+0V/+ykX/+u7/5af/35L+zFL/+ev+1m3/9uH+0mT+yCn+24j/8NP/7MP//vX/3ZX+wykRlbQTAAAGgElEQVR4nO2caXuqOhRGy2hQVBTEsU7F1rb29v//uysGBJUh6M5gz16f+pyjmNW8mWNfXhAEQRAEQRAEQRAEQRAEQRAEQRAEQRAEQf4JPqaUjeyC8ML5cgcx7kx2SXjh9G09JmjJLgkvnD45Gdpo+LSg4fODhs8PGj4/aPj8oOHzg4bPz5MaNliv32PoOM2LBMswGjK/9h7D3v6OQkEydW23zfriOwxHtr2SuqszdIlOBqyKzQ1btq6TjkTF4TouMnEZg9rYsHV6OVndXcBHmbq0xIQxqE0NR3TjSpcX1E9aYJ01qE4/sGMY99paieBR8UtSjzo7F4ExqO1tL2b7wfLilp49/fBYQe+n7WaFYO5RGRk1/fXxoZ0Vg7lHZaPF7ckNaRxURvIRlSrIK6iKRJTCI6jKRJQCH1SFIkqBDqpSEaXABlWxiFJYg/ozPFH5LOUiSqkL6mYxfYs+gxTb3W+/F4UzMQUjSsmCaneuS+5Me3vXJkTPQWx70J993zzH0RvOdcWRBpWsryadTms1uLQ7W5JB52bC2XS9IhAaVLL+ufjX3RuxC/USyUCfXa2MGq45RRIHlawuanCzXdvlekmqV1drqWb7BkKZ2fZlRNtRcTyvw9pZXDyn0d6PWA5RPqK7TlU+Lxzt0UXvNFwpGFFKvpzTqDaguaj2d/nn/Lw8A6O1HdgsKaXVGC3qH6keu20n+mVO6lR2ce9jc/hvHbA5qtq71LObrQOWiiTuk9ZizHDvsjgGT9kWEw7vDFlVvrsxQ3/uUfxJOL78T6fH0K+SvvSztDK65tywjmgJ8c+W55vd3Gt+vuoVg5E0hSrG4VFPK8DSjpK5F/YGtY62grOZ7tzQCv2opOGF2WvpuqEyp6+q5dT0rHK9VDLnuK9tij15MgWM/To96uhlWa1rjGS9q/hA0UwMFr9Tg/TT9zijmmHD3spUumDsMVVg6ngePXq/NYoypfKExf1nOZP0naPqoKpSiZNmejHz5K1OvzKo5FWqWMq8YQXGWF767n1lLco78c3o3iMY12Iyx9msqhSJAjG9UzCrxemgylDuHaGYewVzioeqTRzCdJOBI2zDfAnpwNipULQlf7ctfETwPGgsKqaopC9V0HzI7xjUZAbXrhj4P2UKdpcPGmpL2qE6nfJKDGQaPtQIKUlT3JW3xEDi7Nt8XFCzktXUW2klBtmu2+G9U0if1y/Be1zwCH3WYl1mmLu82AtIIb+cNq1CEEEryem2rBLzhiVZdvkYPt7NUAzan+6iEkV5hg8OhWfSSixrifIMWdf09dD18CZeRp2blgKGEB0pJZ2fvtvuIIpeT0TrgU5urkmLNbx/xn2rSJ84nLW/d0m/v/uYzlpvETkq2dkKcUsvTt+g85idQ/UzJ8NJ8Wc4u0VrHQTZvvA3vTh9Q4vHOTHMUJGw7JZ/0GYk6ZgbYMKWI6z/QNF0YeYzCZZf/4miGYNWoWakMe2mSLWLgRruE07zb3rkaJzw5vOJOa4tBkdgm2G8fRrGx1a5px5/NryJvLqEm9AkPsWHcpblhZIkgQWrWMpxBA5pnaN4wa5QQ82aC69GwYbH4UR0NQo3zHaP/66h4KRKMMydx/1Vw2Mt/nXDYy0KDKoUw+xs/O8aWuIGDeh5KTNmfdlgAF0AN6FqwwMU6NUTM2W7VuDA7ZY2VhRUiV1ZgsJGRdidqEYYgjY3pDVEYRtzoDvCzTC4tUQznPi+H9IRaSxtROQz7KfX7ynGPOxKbIiaAe83ub7AbWmevDqEHzAmS2m9SjHAMR03vf4rANAh8Y7rv/xZAgr6smUKARz05Y3rlRhgayg1a1CDO1GVOG+pBmoJJWe7iQUow7lskVKADJXNKNTyAvLCDDQwdQh8Ug8KjKHCVQhjqG5HGgMxHqocUpg5jbpDhQYzL1W5J4VZW0jchmEAYn1oqmwI0pUqPKEB2qdR2hBkr01lQ5hZqcqGMHveKvc0MOcWKo8WQFsYyo74YOeHgF8YgQVsS1/VmTfgEbCihoB3MRSNKeB9Gnm3LSqAPeFWcIUIfAFTwUEf+m6iai3Rgr/xpVglQp4aJqiVUy7XZxVaYfC6yP7o3y4Bw+B2JTFUIqjWnOPFWVP+VQxL43yn1JfsaPC/qWf6tX/SkheW5U2EXLY055Z4yfgjL/9wLWdJ31saAll6vvhvVnbHpjDkf5cbQRAEQRAEQRAEQRAEQRAEQRAEQRAEQRCkKf8DzreFJOZ8agkAAAAASUVORK5CYII=;" vertex="1" parent="7">
                    <mxGeometry x="30" y="200" width="95" height="95" as="geometry"/>
                </mxCell>
                <mxCell id="20" value="&lt;font style=&quot;font-size: 43px;&quot;&gt;12Â°C&lt;/font&gt;" style="text;html=1;align=left;verticalAlign=middle;whiteSpace=wrap;rounded=0;" vertex="1" parent="7">
                    <mxGeometry x="130" y="207.5" width="130" height="80" as="geometry"/>
                </mxCell>
                <mxCell id="21" value="" style="shape=image;verticalLabelPosition=bottom;labelBackgroundColor=default;verticalAlign=top;aspect=fixed;imageAspect=0;image=data:image/png,iVBORw0KGgoAAAANSUhEUgAAAQoAAAC9CAMAAAB8rcOCAAAAmVBMVEUJIjgAGjIGIDcAHTQAFS8AFzAAACMAESwAACEAGTEAACWs4O8ACykIITip3ewAEi0qQ1YAAB2i1OMABidojJxegJB+qLeaytoAHzif0eBYeooAABNScYFvkqI2TmCKuMcRK0FCXnAAABl2nq2Vw9NKaHk/WmyEsMB8pbUhOExqj59IZHUuSFoAABYcNEhzm6sAAAAAAAsYL0KM9ueoAAAUwElEQVR4nO2dCZuiOBOAIeFODJBwNAwCNuFSR3f8/z/uC9onl/Zo785+yzvP4zgOxlBJVSqhKpGkhYWFhYWFhYWFhYWFhYWFhYWFhYWFhYWFhYWFhf8nIPuna/BlZBt8R7Fww+3LO2B+R/nfgLyL4LeUW6H2XDA4JP+YLGz7K1erCZK+2i1kU736FaCSiwjcLPynVMXeejfJ4uVmPojitt4BdJwmcXtVFhov9K46CUrlmwp+PLiub2qFVj3/9S4K3blFFupqHSFK1tPiVvG5HDWOXazLJ3r8x+znbaJQfFR1jfYmipWxRofrmmKnETnuj3Q1eanq81RUADDHC+r1fs/NbzHLc9j48ve7KLC9mr5czshZFqqadq3YScK/rlhmSrIT06IjnrwEthla21ANUFgHIQqMB1tlqNqKPCtdxmt2vgBnF1EAlvHpCnf/TSrZtjfe1t9rsn1EsXa1GkCOOIPQIZsZ9YdGQjKX052LsbuJHtsrZMuJPW8D9ZlrzB2pre5HlTRVulrjerbCwvxlxY+YoiikiO9x6F+XhKRvSQ67cXLerNiH9khPXS0kJacNBiq2Vvd3jtVKwmmGaEQR9fCMgLGQhQl0JU2SVLGBKiQxJzohC9ttULO3GdxxUhrKDZWxo84GwhTt528M5iR++XE9IYc2bkJyfcyZB2AduzHhpWRh50gyOCeLDdoZfoQIQZFvlC9mcQbsoaTTZGBqAdnfMOJBB1Vy5zSRK16TmRDzVZ8ZSQqSbXd3jqhACmgUkKPWuTRQS2k214uVlZ2hIn2S0wJlTLrm48GWbF+KAxqfLfkFtbwMMloYzF8tSzsnlbRzDTS+tbCl3+tbMB55HqmNl3/aFYrn+rGW0VSTAbgqNNBhe/Rt+iFu0oHnTye/I2PNOq3PplnxiTN3a3hfE4QQL7s6GOFtLt88Zon2DB/ex3AtCGcGBTNBr+ZBKEuiTl4oHw6HNrey2lVfdB7kNMbnTydkAayqCWlUx3b3DZuH9oQsbDFsxIgnTrsLUMOENqFZ630bwPUplj7OEMwdcqzJW7R49tp/JCPLrKnrhNkTkF+JXyapfREejryq+3RM1FBVZVCj8OhvMxKmoo1lh/KWjd0h9sIwQJ6mQmhqG1IwrYjmjP1tQPkY9Uw1OCHCk2HXtzXLsnQFxW9iUmIiYfGhNaZQsBI4XtT1YrruPCzwRH1lU1WbkaFBb+Mk57Q0sK1rDieV+BHVEU5nag/MEd6SrU+O7sW3wyVKE1Q6yp1TU5CHdGB31Sqp0brvWNvrbtgoTmf7fkGM/XnRfTqmqKrhGjkX92Iq6ZqErdxdnkIoy/KIJHxRDKHtpffIwh51/VS2t0KSZb9jKNQ3dPlN/G4WlP4vGlbaXR2DBVGLB+KEqusPlA/ufUGao91brxCqdEq7T0eaGSdZeOSRw8R4B/EhjHJgiJn0uJcO98KNzoPdq0RhTo+dVODzIQr7lsVyyCcTpfh0o+BTjYqbbnkCkKN43DF45nVfoaEigJro7K+f4HVky+dPB98XzVwfI/IyM5XknAY/PLSb6MS6R10APrQJXtNnWbIlj4aHXpPghgg9+1ivlBKaMK2kg/7zBeTdyyrQsHLbibUQXNBXvwbYl7YbA9LjT3xI31pPj0mJvB/jotCFZ/O5IHlDttVPj5AC9urHAlLan22TrElHVJomvmcQgZOOPj6G44MDPJCXeSA0anKaUE/l0JkU8F42kGjsPNejbrrmE8I/qwE48QhlGz/vDwxiYNoMxx/w3Ezp3s0ob75gr2wtaiacC3dHslbDWGszsjPGRcE2GemZUo2TLAnGpixKgo5PrFcQYJaYb7qDdlL8yOh/JpDTK5O364hxqTT0AVgo5HjRwG7aKiLZ8ZiRqGqL0fVHtkWZ1/s+rPyaBEIWA49FpY07Voq+J/5glLa9cKzthN29Mnm7Dq5Rth5QhKQctQIAZyTV5bgOwzqGeoqyEddGWCDPtfs1g4qxI36N+jolb6YaVKuzgb3qrNuISWAevd/btMSgN4AXzrg9tIUkFAko+NcPLDqEXZFsqEdWlj2PfltbU6Ps37aakImHJPjIh6abcZ4L9fyMWxHv2hT5BkzMhuDxdmI1Sc8mQG/OK82SXpHBoCvZdGLVrluDGPzP2fEavdzIRhZQ4SEkddCDoynL9m2oSXW5lbe1TbsariooU6KQR5dj7LAeW5oEuBqd7UElDuoeRfX3L3i/TjLfl3nloasgFMQd/bZQkJHGUzeodsw+qhTTicmeip8djbkHaLHujZGv7vIo7mR28V/44/6zrfZRjIqsxzQa7yiiAwhqJh6PrfQAdSbbU8RAJykOKR5gJ36b+ecg3WDqx338AA3tyhkF7/wBSWtN+G9izKm0lNRMrVCFHZrdsmL6bQBndkGV7bJhM1PuTy4qnGcyn1Gn/QT4hIUkNL01n2whifuXKu5iZlGuw7RkadXjiT1gze2C8P5riyXCuYdp8D3xCo8E9Hlk4avYVhPUWR74d4+ifxympHjrG9bP/xsoD9O3hYWFhYWFhYWFhYWFhYWFhYVvBMyF3f6HALaVO1MBkP8p1CePUzIXa/rHADGzMdO/q9X0KiKNP/7c7beB6liA2eS15k3XAq0KQkL4Nv+eVVmlItnp2SdfTtObAVpt4scpvqXGKtvHfuJoV4QBFUWWA8TXcdxQkkxG/t4ByGmtQRzcEkh/K7qTEUIpiqaf5l1YdeEpIaJUNHU1q6C64/tORhNNVxW2apD/DeqMzxlmFn9QfEWXD2IkJEwO5iptUD2X3wmZzTRxTZUrecmRP/MQ2U6EbAlN8Tl0Dhjr6wmQQL2eW9r7kXMYKcsmHkx/ESAXYXgkDVOAeG9U7/kQQ9R9FvEAJYYsrlWN7VQEbFdsLopk2+TtAoNPB8dfMEES5196LA5TVAkt1Y93xyqeYZyujyR7jTvsUhumqgMdwr0avWaArdyCTOZKKiWRoGS/x82oCTnNjiNyKpSO7KbzKvoAU3fCLszN3KDqAYnY5g6lFvvgomj1ZJIgbkKss/RNUuCJbie6hZ0fe/GO4ECCxJzRERZmOaxnsks/A3C+6+x8VxuN8weEFhg+7bLW3gtSS9RqozKGP7Kgu/a9L7KGu6MhbDihlH8OvFrZdUjCdLLRQYs2iuygzS2DNBA1Li52Pra6DkVqdme/gPZ2kA9yQDTbjdhDpQ1oL4BU8UkUtMO7Ez22WfXH2hUzWk4PI3e60m2sgxwllom9XJXfmKi1yXKch8RzbDk9pwlJekn4xmJ3hLECyMkxgZ9NjlrGGfIGSmJWJPSqz7UDeeJFdDgyaGE2GqErK1Exon14TYiHWU3jzabafCAfrbVSRYiG4UH0R2Hny3PuinAGUJTdEd2MG+pYat/4morrnS3zR8BTlLFBzh5QdTuL+mYWtmQi3wGvo+EwoiTE26JShUGXUvSReEydROn1bkudl/+z/LNRkp9TSn8/zxRIQ79HP9tBl/fjztSYjPXtLseL9OMrp/NlbZ8Ohye94X/9itZY1qRT/sbpdBj/Qd0nlqq/G2A7OorhT9mFdNoQXUXeDPJBtHXTyUJf9/NB9IJP+Bta2E8LET5FPO7Aa8VIcoWwOKWzSfcC5419DseDlhTQ0E91Y0EY5y5HWXtHqN6nUPPzIOIe0TncXoiiV2XhxowHpkpWOJgWWnWoqINoLACw00+OOGMHCPV1A40EeHfgkpDPSVRqLOZ7SZVemxLNAkzivd4xTg8ACJ+6G5uEmxz2vXozQc5o/1P3Qs17n8GWhrsPnf2FQ0z5aG/Bhw/94YV8dGUKVihY9SI6VUtu0JXk+KvgI6kMXRF2kyXIt3FASlcMsLpVkIGyKyHPmT2A5eFIbpUpDDoZIXgabzqo5QNZ7Mc8WZbxkcxB4IqPf0cAH7BrUns+kLQYFUytSbaN9b23DlEyELLsRLTwBhQ0Gss/g2yfDCgnI3RxM1AQhMZytlQyGksvBqF7VywAjjMa5YaP1gbIeRaSzI2F25SOdDdZOvJhjG64ntjKB5qqquqvEd44tRV1MkJXX5M4TZ19+omxoVEmozMktST3r26qlqGxLdk+icHp555muu4a2ng+CNC1Hz8Nw/jxLF5+PbvnF21uigWdi88CsYQ26uT8Y6WHawOy9c6GHxlNxuL1iPVeuc1oItVXgUqCaES2tt4l/Rj+hOnuwD5SJM0jssS29AloHp2bGwPmkrjbvgOm5Egb4k8N+2dRmJaowtXKqgnyNNZPExK9enZ7hRvR00OexDRsVSEJu1OVSVt8DibWPOQpaow8W7zbzlQAHHhL4sITl8gejehxes55VpBgInXvM9oahf0soYCjmT2CbkZM0j0mdR69yzPb7YzG5LXAiS1DSMKAeJ8wXbyb65Umy6IoJDtNuFy1EEVYTc/Q9QYhWt60EszSIuvTVI9YulFJrZ3CKHfjGCpCAbbTkugWuvWtkISSrnVVeNfe7LW7IBAC4MVRhg5PSFzPJUqz016/0W2WMfv5rDHtp8uY+2ww64f7mDQh2OpSeBlDdHiYb2eBKa7oNq7q9ryYX+VVEy4Gp4jzWpagJZFKm60v+IKvyLxuhSwsdLsUkx0rmLFuX0J4+kWrJ+iodRb/ms8m5j3gQLLzPlRXKm+6jRBF5JyFC2/cPe8W5B3a4hWPHNVBgaIJv/Bx2yrqEKaXxevr9RUyyNc3NSFoSUX87GWu9sBHNuBUahKnjo3NxLaFJB77VAEqX7A7NybmAPaM/Jv2wvoiQM1D2uJTWGK4R7t/w+NSMfWd2svgPsAhc+w2ig7dPiH/kg1Y5/fk+30Ag3oTnTpD/IgHIP968m/Z5fZfyRJdsrCwsLCwsLCwsLCwsLCwsPCnomLG9GUhqzvEoyzqeru/b8vqCYCsmvDGRVOoqn//mTXvv67IehoiXmcRqh/4rOm1eJZv4sTBtzy4VFlbxrvDPcGzc1zbTgzv/U1Jsr3FLJzQ8NGrvXYbdOkbiCdTMUJvrKwd764l9f47HsYAUejE1qcX8BZ1P355BKsfouG2tb//27plaTsS+c5Tvqmntj+8AJnFjDXKysNTm4QkfvyWn0AWbZKdpmUhV8jDVf3adZTNI06BePltdc35mtRYhwDIxm42Ncapw6xBsWsCABXjiJKrIRFAYdZ4IsE4XaR3EvHpeAnNo88Avuc8uLyZ2Cr9y1gZKRqSveoFLqdP/ejCMdfZe+CBG9ArwWArXYprzm8/QRAcUKzhdBBi/l7dkn+OQMMFrcuH9M7zRp5a+h5ObdST4Qp6ESkYb97i44FE53dKBsynJMvITTkel2+ceAvNVnR6iEdM+IoVKFu//7O7garIHrNNsRb3UmPMEp3Go0LAOTVm9TE1JuA/5tJzrBodT3/xGZU7Az/uW+vaal5ToYtNPYwWUGKUuG/SVzEU4oK6m9xytNsVAPbDXpQ+PCBaj22BbObFSGpMWJwme7/WkJ0B20FmQA9Y9YNXyc7OaZihQQwJDoP3WEWcRCjcdYIxihDf+RgZqJw0ca9ZlcTjI0mhckqjdS/NAxziNaVTxx+ZG5QwCU5u3/5ObxvfJO9CAPO/BjmTIP8gVqHaTVmTbhdwtZzO57sRYXJSbRALouojSaHADLk6CP8CCgY8nOicLOvOHTJvqKZQDO3jluq2are+JYdBv0GeqP+mHrjmPxUt7PZrVuLOlN4jDPBEJlKCXR70U2MSMrbbfhfZPnFY2otmTJ+88RF73cVtfSSM6DDmntX8LddBLzy7Oz4HS9DlmQWVVn5kasxrSrq+jfqpMcdwMjVmPOj1pdd2eTLXg5BgtR2G0rfDs332JGtdJmlGF1v9yxAGM3HdQ00qxQkRHZ4zcSt9UWA327qXTf2/IIqR1JgzakzOZWnZVH7RO0xzfwwYHg/S7axPEeEufbOwxS9OEd3pmPOqHts9/jYAIK9Z5V3fUuuEN8U5om4kdyyZOB1OnlIQIYqnTn2FwOMrVcQZGdn4uxmbl5lq6SfG7jWvwnFZ4pfMUjSa/KjQ7+fR4YIIsymGZnUX27LS0IhGiSLM5hb1o5CBHHIZD7cex6spswnTlzMerIJU85M8uexv7h77vkdHTtyQuoDpKn7PMYnjl1c/SXh0R3yzmpHAj1dp3vDVDqchpdn+EHvZ1GA62L6+G0ynDmxRo5cjifUabVU2F+JoKrou5Pr2gkvFZumgPS5gPpqBREh4z2HQwsXilDic8pCGLq25+FMimm1GXCz1VETDn4+KfMrF0rcv+ZhA2xISeHOBizAXwww8iRdZvIAclQqw0ajmQcUads6npyfwZN03RbWZjmWtppTbEPzkx2fLsPHo0YBCbuxsubtDlYzzG83QZnaxAapwRc4lrfDJj6anWN3UI+RM7tYeYBtleIXDzDSOZDQVax/H/UysOGnxYzaQ1xsSRTTEuro/aPG4hl6qkZyVIs/fFSSfKRc6lDuaCaEwMkcyzO1+B9dRqxyi8ABxFh2ArKXduRj+2MikFyMmloxf+3VwsimyQ2x4e1OL0eS5at2+Cx2orN6UdX5jATHYk6B02modkdkToEF70E9ReJIxdk7QrjL94HvpuOzUpx6WUI/1TXk11wCyL+N4i40G7VwhiRknAMpP3eyRYeVpdX73tJpXT1kX073u7MricOWQZKEYYS4bzRoDuUtXgsrgkKq3a9VOG1RdaET3Dmc7E2LqPSCYHGakBfYzlGhylsTceCQU9aKdlZ127643haLl1caxZlcrzyVXPIe46SwlbrLZ7U/wrlAkXB7t7kWXWFS4tnBpf9/rfqvDhlYKzLNUVuzDOStkBqGoF/iPuvuruUFDwdixnSP1YFD1UdIphTqbWiDvSK3jEjXY7F4k7BGv5NfW024CArM717Sz1nAsv/QjK3i6AMD53WPX3cHh6gnbAtUPMCtRwIDuNUzSW7amhKcPWt/EGb1MfW5IjXk7+OTR559It2ZNqVgXktBgvtd1SfNQi+WT9ahGkTcju7T8ucA9agxZuCKWpPioG0Yf2CY3afMfRKLDQxgKnYZV/B0b0v2LUFfyJjzrNPxHj9r6M5AfZh4WFhYWFhYWFhYWFhYWFhYWFhYWFhYWFhYWFhb+j/kflavHUV5PgycAAAAASUVORK5CYII=;" vertex="1" parent="7">
                    <mxGeometry x="470" y="40" width="316" height="224.53" as="geometry"/>
                </mxCell>
            </root>
        </mxGraphModel>
    </diagram>
</mxfile>